# xmcd
#
# Track frame offsets:
#	150
#	23197
#	47232
#	70499
#	91131
#	120141
#	139254
#	165994
#	190898
#	210751
#	237071
#	264059
#	281467
#
# Disc length: 4007 seconds
#
# Revision: 1
# Processed by: cddbd v1.5.2PL0 Copyright (c) Steve Scherf et al.
# Submitted via: audiograbber 1.82.01
#
DISCID=a10fa50d
DTITLE=Hoktezuma - The Indian Song
DYEAR=1900
DGENRE=Cult
TTITLE0=Akhachimay
TTITLE1=Kabra Nawy
TTITLE2=Ruminahuy
TTITLE3=Nuna Quilla
TTITLE4=Relampago
TTITLE5=Imbabura Sumag
TTITLE6=Quarwa Yaku
TTITLE7=Aviu Tusuy
TTITLE8=Song of the Sun
TTITLE9=Chirapag
TTITLE10=Llaki Runa
TTITLE11=Otavalena
TTITLE12=Anqayllu
EXTD=
EXTT0=
EXTT1=
EXTT2=
EXTT3=
EXTT4=
EXTT5=
EXTT6=
EXTT7=
EXTT8=
EXTT9=
EXTT10=
EXTT11=
EXTT12=
PLAYORDER=
